<svg xmlns="http://www.w3.org/2000/svg" xmlns:svgjs="http://svgjs.com/svgjs" xmlns:xlink="http://www.w3.org/1999/xlink" width="288" height="288"><svg xmlns="http://www.w3.org/2000/svg" width="288" height="288" viewBox="0 0 48 48"><path style="line-height:normal;text-indent:0;text-align:start;text-decoration-line:none;text-decoration-style:solid;text-decoration-color:#000;text-transform:none;block-progression:tb;isolation:auto;mix-blend-mode:normal" fill="#ffd66b" d="M24 0C10.751 0 0 10.751 0 24s10.751 24 24 24 24-10.751 24-24S37.249 0 24 0zm0 1c12.708 0 23 10.291 23 23S36.708 47 24 47 1 36.709 1 24 11.292 1 24 1zm1 10a2.506 2.506 0 0 0-2.5 2.5c0 1.204.863 2.213 2 2.447V18h-7a.5.5 0 0 0-.5.5v2.55h-.002A2.508 2.508 0 0 0 15 23.5c0 1.204.863 2.213 2 2.447V28h-4.5a.5.5 0 0 0-.5.5v2.55a2.508 2.508 0 0 0-2 2.45c0 1.376 1.124 2.5 2.5 2.5s2.5-1.124 2.5-2.5a2.508 2.508 0 0 0-2-2.45V29h9v2.05a2.508 2.508 0 0 0-2 2.45c0 1.376 1.124 2.5 2.5 2.5s2.5-1.124 2.5-2.5a2.508 2.508 0 0 0-2-2.45V28.5a.5.5 0 0 0-.5-.5H18v-2.053h.002A2.506 2.506 0 0 0 20 23.5a2.51 2.51 0 0 0-2-2.45V19h14v2.05h-.002A2.508 2.508 0 0 0 30 23.5c0 1.204.86 2.213 1.998 2.447V28.5a.5.5 0 0 0 .5.5H35v2.05h-.002A2.508 2.508 0 0 0 33 33.5c0 1.376 1.124 2.5 2.5 2.5s2.5-1.124 2.5-2.5a2.51 2.51 0 0 0-2-2.45V28.5a.5.5 0 0 0-.5-.5h-2.502v-2.053A2.506 2.506 0 0 0 35 23.5a2.51 2.51 0 0 0-2-2.45V18.5a.5.5 0 0 0-.5-.5h-7v-2.053h.002A2.506 2.506 0 0 0 27.5 13.5c0-1.376-1.124-2.5-2.5-2.5zm0 1c.84 0 1.5.66 1.5 1.5 0 .813-.622 1.453-1.424 1.492a.5.5 0 0 0-.084-.01.5.5 0 0 0-.072.01c-.8-.042-1.42-.68-1.42-1.492 0-.84.66-1.5 1.5-1.5zm-7.543 10.004h.002a.5.5 0 0 0 .078 0c.821.02 1.463.67 1.463 1.496 0 .814-.622 1.453-1.424 1.492a.5.5 0 0 0-.084-.01.5.5 0 0 0-.072.01c-.8-.04-1.42-.68-1.42-1.492 0-.825.639-1.473 1.457-1.496zm15 0h.002a.5.5 0 0 0 .078 0c.821.02 1.463.67 1.463 1.496 0 .824-.637 1.471-1.453 1.496a.5.5 0 0 0-.057 0 .5.5 0 0 0-.035 0A1.484 1.484 0 0 1 31 23.5c0-.825.639-1.473 1.457-1.496zm-20 10h.002a.5.5 0 0 0 .078 0c.821.02 1.463.67 1.463 1.496 0 .84-.66 1.5-1.5 1.5s-1.5-.66-1.5-1.5c0-.825.639-1.473 1.457-1.496zm10 0h.002a.5.5 0 0 0 .078 0c.821.02 1.463.67 1.463 1.496 0 .84-.66 1.5-1.5 1.5s-1.5-.66-1.5-1.5c0-.825.639-1.473 1.457-1.496zm13 0h.002a.5.5 0 0 0 .078 0c.821.02 1.463.67 1.463 1.496 0 .84-.66 1.5-1.5 1.5s-1.5-.66-1.5-1.5c0-.825.639-1.473 1.457-1.496z" class="color000 svgShape" color="#000" font-family="sans-serif" font-weight="400" overflow="visible"/></svg></svg>