<svg xmlns="http://www.w3.org/2000/svg" xmlns:svgjs="http://svgjs.com/svgjs" xmlns:xlink="http://www.w3.org/1999/xlink" width="288" height="288"><svg xmlns="http://www.w3.org/2000/svg" width="288" height="288" viewBox="0 0 24 24"><circle cx="12" cy="12" r="4" fill="#35322c" class="colorffac9c svgShape"/><path fill="#1b1916" d="M19.66,5.27l2,3.46-2,1.13a7.78,7.78,0,0,1,0,4.28l2,1.13-2,3.46L17.71,17.6A8.06,8.06,0,0,1,14,19.74V22H10V19.74A8.06,8.06,0,0,1,6.29,17.6L4.34,18.73l-2-3.46,2-1.13a7.78,7.78,0,0,1,0-4.28l-2-1.13,2-3.46,2,1.13A8.06,8.06,0,0,1,10,4.26V2h4V4.26A8.06,8.06,0,0,1,17.71,6.4ZM16,12a4,4,0,1,0-4,4A4,4,0,0,0,16,12Z" class="colorffe3dc svgShape"/><path fill="#ffd064" d="M14,23H10a1,1,0,0,1-1-1V20.48a9.33,9.33,0,0,1-2.85-1.64l-1.31.76a1,1,0,0,1-1.37-.37l-2-3.46a1.05,1.05,0,0,1-.1-.76,1,1,0,0,1,.47-.61l1.32-.76a8.48,8.48,0,0,1,0-3.28L1.84,9.6A1,1,0,0,1,1.37,9a1.05,1.05,0,0,1,.1-.76l2-3.46a1.06,1.06,0,0,1,.61-.47,1,1,0,0,1,.76.1l1.31.76A9.33,9.33,0,0,1,9,3.52V2a1,1,0,0,1,1-1h4a1,1,0,0,1,1,1V3.52a9.33,9.33,0,0,1,2.85,1.64l1.31-.76a1,1,0,0,1,.76-.1,1.06,1.06,0,0,1,.61.47l2,3.46a1.05,1.05,0,0,1,.1.76,1,1,0,0,1-.47.61l-1.32.76a8.48,8.48,0,0,1,0,3.28l1.32.76a1,1,0,0,1,.47.61,1.05,1.05,0,0,1-.1.76l-2,3.46a1,1,0,0,1-1.37.37l-1.31-.76A9.33,9.33,0,0,1,15,20.48V22A1,1,0,0,1,14,23Zm-3-2h2V19.74a1,1,0,0,1,.75-1A7,7,0,0,0,17,16.9a1,1,0,0,1,1.21-.17l1.08.63,1-1.72L19.2,15a1,1,0,0,1-.46-1.14,6.85,6.85,0,0,0,0-3.74A1,1,0,0,1,19.2,9l1.09-.63-1-1.72-1.08.63A1,1,0,0,1,17,7.1a7,7,0,0,0-3.25-1.87,1,1,0,0,1-.75-1V3H11V4.26a1,1,0,0,1-.75,1A7,7,0,0,0,7,7.1a1,1,0,0,1-1.21.17L4.71,6.64l-1,1.72L4.8,9a1,1,0,0,1,.46,1.14,6.85,6.85,0,0,0,0,3.74A1,1,0,0,1,4.8,15l-1.09.63,1,1.72,1.08-.63A1,1,0,0,1,7,16.9a7,7,0,0,0,3.25,1.87,1,1,0,0,1,.75,1Z" class="colorff6f5f svgShape"/><path fill="#ffd064" d="M12,17a5,5,0,1,1,5-5A5,5,0,0,1,12,17Zm0-8a3,3,0,1,0,3,3A3,3,0,0,0,12,9Z" class="colorff6f5f svgShape"/></svg></svg>