<svg id="Layer_1" data-name="Layer 1" xmlns="http://www.w3.org/2000/svg" viewBox="0 0 50 50"><defs><style>.cls-1{fill:none;stroke:#ffd064;stroke-linecap:round;stroke-linejoin:round;}</style></defs><path class="cls-1" d="M38,12.55H35.28a9.61,9.61,0,0,0-1-1.56l1.36-2.36a1.62,1.62,0,0,0-.54-2.22l-.06,0L29.52,3.16a1.63,1.63,0,0,0-2.25.49l-.06.11-1.34,2.3a9.43,9.43,0,0,0-1.84,0l-1.36-2.3a1.56,1.56,0,0,0-1-.76,1.63,1.63,0,0,0-1.22.16L14.91,6.38a1.62,1.62,0,0,0-.6,2.2L15.69,11a11.77,11.77,0,0,0-.91,1.58H12a1.61,1.61,0,0,0-1.61,1.61v6.48A1.62,1.62,0,0,0,12,22.28h2.72a12.34,12.34,0,0,0,.93,1.56l-1.36,2.3a1.65,1.65,0,0,0,.6,2.22l5.61,3.23a1.54,1.54,0,0,0,1.22.16,1.6,1.6,0,0,0,1-.74L24.1,28.7a9.43,9.43,0,0,0,1.84,0L27.28,31a1.68,1.68,0,0,0,1,.74,1.48,1.48,0,0,0,.42,0,1.66,1.66,0,0,0,.81-.21l5.61-3.24a1.64,1.64,0,0,0,.6-2.21l-1.36-2.31a11.24,11.24,0,0,0,.93-1.52H38a1.62,1.62,0,0,0,1.61-1.62V14.16A1.61,1.61,0,0,0,38,12.55Zm-13,8.9a4.06,4.06,0,1,1,4.06-4.05A4.05,4.05,0,0,1,25,21.45Z"/><polyline class="cls-1" points="39.62 16.99 43.73 16.99 43.73 27.56"/><path class="cls-1" d="M47,33a3.66,3.66,0,1,0-6.43,0"/><polyline class="cls-1" points="10.43 16.99 6.26 16.99 6.26 27.56"/><path class="cls-1" d="M3.05,33a3.66,3.66,0,1,1,6.43,0"/><rect class="cls-1" x="2.6" y="36.04" width="12.5" height="11.06"/><rect class="cls-1" x="18.75" y="36.04" width="12.5" height="11.06"/><rect class="cls-1" x="34.89" y="36.04" width="12.5" height="11.06"/><polyline class="cls-1" points="10.43 36.04 10.43 40.72 15.11 40.72"/><polyline class="cls-1" points="26.57 36.04 26.57 40.72 31.25 40.72"/><polyline class="cls-1" points="42.71 36.04 42.71 40.72 47.4 40.72"/></svg>
